<?xml version="1.0" encoding="utf-8"?>
<!-- Generator: Adobe Illustrator 27.3.1, SVG Export Plug-In . SVG Version: 6.00 Build 0)  -->
<svg version="1.1" id="Calque_1" xmlns="http://www.w3.org/2000/svg" xmlns:xlink="http://www.w3.org/1999/xlink" x="0px" y="0px"
	 viewBox="0 0 854.5 290.2" style="enable-background:new 0 0 854.5 290.2;" xml:space="preserve">
<style type="text/css">
	.st0{fill:#F04E3E;}
	.st1{fill:#034EA2;}
	.st2{font-family:'PxGroteskRegular';}
	.st3{font-size:145px;}
	.st4{letter-spacing:-1;}
	.st5{font-family:'PxGrotesk-Bold';}
	.st6{font-size:85px;}
</style>
<g>
	<path class="st0" d="M336.6,124.2c0-20.7-23.4-32.8-40.3-20.7l-125.5,89.6c-1.5,1.1-3.6,1.1-5.1,0L40.3,103.5
		C23.4,91.4,0,103.5,0,124.2v150.1c0,9.2,7.4,16.6,16.6,16.6H320c9.2,0,16.6-7.4,16.6-16.6L336.6,124.2L336.6,124.2z"/>
	<path class="st1" d="M296.3,7.4L170.9,97c-1.5,1.1-3.6,1.1-5.1,0L40.3,7.4C23.4-4.7,0,7.4,0,28.1v96.1c0-20.7,23.4-32.8,40.3-20.7
		l125.5,89.6c1.5,1.1,3.6,1.1,5.1,0l125.5-89.6c16.9-12.1,40.3,0,40.3,20.7V28.1C336.6,7.4,313.2-4.7,296.3,7.4L296.3,7.4z"/>
</g>
<text transform="matrix(1 0 0 1 404.91 108.8934)" class="st1 st2 st3 st4">Mipise</text>
<text transform="matrix(1 0 0 1 404.91 213.8934)" class="st0 st5 st6">Payment</text>
<text transform="matrix(1 0 0 1 404.91 288.8934)" class="st0 st5 st6">Services</text>
</svg>
