<?xml version="1.0" encoding="utf-8"?>
<!-- Generator: Adobe Illustrator 27.3.1, SVG Export Plug-In . SVG Version: 6.00 Build 0)  -->
<svg version="1.1" id="Calque_1" xmlns="http://www.w3.org/2000/svg" xmlns:xlink="http://www.w3.org/1999/xlink" x="0px" y="0px"
	 viewBox="0 0 841.1 288.4" style="enable-background:new 0 0 841.1 288.4;" xml:space="preserve">
<style type="text/css">
	.st0{fill:#F04E3E;}
	.st1{fill:#034EA2;}
	.st2{font-family:'PxGroteskRegular';}
	.st3{font-size:145px;}
	.st4{letter-spacing:-1;}
</style>
<g>
	<path class="st0" d="M336.6,121.7c0-20.7-23.4-32.8-40.3-20.7l-125.5,89.6c-1.5,1.1-3.6,1.1-5.1,0L40.3,100.9
		C23.4,88.9,0,100.9,0,121.7v150.1c0,9.2,7.4,16.6,16.6,16.6H320c9.2,0,16.6-7.4,16.6-16.6L336.6,121.7L336.6,121.7z"/>
	<path class="st1" d="M296.3,4.8L170.9,94.4c-1.5,1.1-3.6,1.1-5.1,0L40.3,4.8C23.4-7.3,0,4.8,0,25.5v96.1
		c0-20.7,23.4-32.8,40.3-20.7l125.5,89.6c1.5,1.1,3.6,1.1,5.1,0l125.5-89.6c16.9-12.1,40.3,0,40.3,20.7V25.5
		C336.6,4.8,313.2-7.3,296.3,4.8L296.3,4.8z"/>
</g>
<text transform="matrix(1 0 0 1 404.91 190.4341)" class="st1 st2 st3 st4">Mipise</text>
</svg>
